<svg xmlns="http://www.w3.org/2000/svg" xmlns:xlink="http://www.w3.org/1999/xlink" width="1024" zoomAndPan="magnify" viewBox="0 0 768 767.999994" height="1024" preserveAspectRatio="xMidYMid meet" version="1.0"><style>path{stroke:#000}@media(prefers-color-scheme:dark){path{stroke:#fff}}</style><path stroke-linecap="round" transform="matrix(0.75, 0, 0, 0.75, 60.227582, 135.497752)" fill="none" stroke-linejoin="miter" d="M 25.498641 25.497791 L 264.988237 25.497791 " stroke-width="51" stroke-opacity="1" stroke-miterlimit="4"/><path stroke-linecap="round" transform="matrix(0.75, 0, 0, 0.75, 284.535253, 135.497752)" fill="none" stroke-linejoin="miter" d="M 25.499872 25.497791 L 264.989468 25.497791 " stroke-width="51" stroke-opacity="1" stroke-miterlimit="4"/><path stroke-linecap="round" transform="matrix(0.75, -0.000000000000000093, 0.000000000000000093, 0.75, 509.050466, 135.497752)" fill="none" stroke-linejoin="miter" d="M 25.500422 25.497791 L 239.463974 25.497791 " stroke-width="51" stroke-opacity="1" stroke-miterlimit="4"/><path stroke-linecap="round" transform="matrix(0.75, 0, 0, 0.75, 433.895574, 227.240884)" fill="none" stroke-linejoin="miter" d="M 25.498612 25.501739 L 312.983001 25.501739 " stroke-width="51" stroke-opacity="1" stroke-miterlimit="4"/><path stroke-linecap="round" transform="matrix(0.75, 0, 0, 0.75, 368.777769, 181.36444)" fill="none" stroke-linejoin="miter" d="M 25.499435 25.498456 L 410.020287 25.498456 " stroke-width="51" stroke-opacity="1" stroke-miterlimit="4"/><path stroke-linecap="round" transform="matrix(0.75, 0, 0, 0.75, 157.40563, 227.240884)" fill="none" stroke-linejoin="miter" d="M 25.500828 25.501739 L 327.276885 25.501739 " stroke-width="51" stroke-opacity="1" stroke-miterlimit="4"/><path stroke-linecap="round" transform="matrix(0.75, 0, 0, 0.75, 102.265076, 181.36444)" fill="none" stroke-linejoin="miter" d="M 25.500734 25.498456 L 315.02679 25.498456 " stroke-width="51" stroke-opacity="1" stroke-miterlimit="4"/><path stroke-linecap="round" transform="matrix(0.75, 0, 0, 0.75, 170.843387, 273.117282)" fill="none" stroke-linejoin="miter" d="M 25.500485 25.499875 L 189.44841 25.499875 " stroke-width="51" stroke-opacity="1" stroke-miterlimit="4"/><path stroke-linecap="round" transform="matrix(0.75, 0, 0, 0.75, 357.658901, 273.117282)" fill="none" stroke-linejoin="miter" d="M 25.501676 25.499875 L 34.366259 25.499875 " stroke-width="51" stroke-opacity="1" stroke-miterlimit="4"/><path stroke-linecap="round" transform="matrix(0.75, 0, 0, 0.75, 454.071125, 273.117282)" fill="none" stroke-linejoin="miter" d="M 25.498919 25.499875 L 26.196835 25.499875 " stroke-width="51" stroke-opacity="1" stroke-miterlimit="4"/><path stroke-linecap="round" transform="matrix(0.75, 0, 0, 0.75, 146.773911, 318.993724)" fill="none" stroke-linejoin="miter" d="M 25.49937 25.497952 L 234.31188 25.497952 " stroke-width="51" stroke-opacity="1" stroke-miterlimit="4"/><path stroke-linecap="round" transform="matrix(0.75, 0, 0, 0.75, 349.137495, 318.993724)" fill="none" stroke-linejoin="miter" d="M 25.498967 25.497952 L 178.853141 25.497952 " stroke-width="51" stroke-opacity="1" stroke-miterlimit="4"/><path stroke-linecap="round" transform="matrix(0.75, -0.000000000000000372, 0.000000000000000372, 0.75, 131.351188, 364.87014)" fill="none" stroke-linejoin="miter" d="M 25.500501 25.501274 L 188.292176 25.501274 " stroke-width="51" stroke-opacity="1" stroke-miterlimit="4"/><path stroke-linecap="round" transform="matrix(0.75, 0.000000000000000364, -0.000000000000000364, 0.75, 102.265076, 410.746584)" fill="none" stroke-linejoin="miter" d="M 25.500734 25.499348 L 208.938243 25.499348 " stroke-width="51" stroke-opacity="1" stroke-miterlimit="4"/><path stroke-linecap="round" transform="matrix(0.75, 0, 0, 0.75, 76.673934, 456.622965)" fill="none" stroke-linejoin="miter" d="M 25.502464 25.497506 L 226.736849 25.497506 " stroke-width="51" stroke-opacity="1" stroke-miterlimit="4"/><path stroke-linecap="round" transform="matrix(0.75, 0, 0, 0.75, 60.227582, 502.499419)" fill="none" stroke-linejoin="miter" d="M 25.498641 25.500776 L 237.75386 25.500776 " stroke-width="51" stroke-opacity="1" stroke-miterlimit="4"/></svg>